# xmcd
#
# Track frame offsets: 
#        150
#        13522
#        26082
#        42155
#        61297
#        80497
#        100297
#        116077
#        137387
#        157925
#        171185
#        191480
#        210837
#        232857
#
# Disc length: 3175 seconds
#
# Revision: 6
# Processed by: cddbd v1.5.2PL0 Copyright (c) Steve Scherf et al.
# Submitted via: ExactAudioCopy v0.99pb3
#
DISCID=a60c650e
DTITLE=Lambchop - How I Quit Smoking
DYEAR=1995
DGENRE=--
TTITLE0=For Which We Are Truly Thankful
TTITLE1=The Man Who Loved Beer
TTITLE2=The Militant
TTITLE3=We Never Argue
TTITLE4=Life's Little Tragedy
TTITLE5=Suzieju
TTITLE6=All Smiles And Mariachi
TTITLE7=The Scary Caroler
TTITLE8=Smuckers
TTITLE9=The Militant
TTITLE10=Garf
TTITLE11=Your Life As A Sequel
TTITLE12=Theöne
TTITLE13=Again
EXTD=
EXTT0=
EXTT1=
EXTT2=
EXTT3=
EXTT4=
EXTT5=
EXTT6=
EXTT7=
EXTT8=
EXTT9=
EXTT10=
EXTT11=
EXTT12=
EXTT13=
PLAYORDER=
